HIERARCHY
ROOT Hips
{
	OFFSET -3.958830 18.904000 13.208200
	CHANNELS 6 Xposition Yposition Zposition Zrotation Yrotation Xrotation 
	JOINT LHipJoint
	{
		OFFSET 0.000000 0.000000 0.000000
		CHANNELS 3 Zrotation Yrotation Xrotation
		JOINT LeftUpLeg
		{
			OFFSET 1.800000 -1.400000 0.085000
			CHANNELS 3 Zrotation Yrotation Xrotation
			JOINT LeftLeg
			{
				OFFSET 2.215000 -6.000000 0.000000
				CHANNELS 3 Zrotation Yrotation Xrotation
				JOINT LeftFoot
				{
					OFFSET 2.500000 -6.900000 0.000000
					CHANNELS 3 Zrotation Yrotation Xrotation
					JOINT LeftToeBase
					{
						OFFSET 0.200000 -0.500000 1.950000
						CHANNELS 3 Zrotation Yrotation Xrotation
						End Site
						{
							OFFSET 0.000000 0.000000 0.000000
						}
					}
				}
			}
		}
	}
	JOINT RHipJoint
	{
		OFFSET 0.000000 0.000000 0.000000
		CHANNELS 3 Zrotation Yrotation Xrotation
		JOINT RightUpLeg
		{
			OFFSET -1.800000 -1.400000 0.085000
			CHANNELS 3 Zrotation Yrotation Xrotation
			JOINT RightLeg
			{
				OFFSET -2.215000 -6.000000 0.000000
				CHANNELS 3 Zrotation Yrotation Xrotation
				JOINT RightFoot
				{
					OFFSET -2.500000 -6.900000 0.000000
					CHANNELS 3 Zrotation Yrotation Xrotation
					JOINT RightToeBase
					{
						OFFSET -0.200000 -0.500000 1.950000
						CHANNELS 3 Zrotation Yrotation Xrotation
						End Site
						{
							OFFSET 0.000000 0.000000 0.000000
						}
					}
				}
			}
		}
	}
	JOINT LowerBack
	{
		OFFSET 0.000000 0.000000 0.000000
		CHANNELS 3 Zrotation Yrotation Xrotation
		JOINT Spine
		{
			OFFSET -0.087000 1.940000 -0.288900
			CHANNELS 3 Zrotation Yrotation Xrotation
			JOINT Spine1
			{
				OFFSET 0.000000 1.950000 0.060000
				CHANNELS 3 Zrotation Yrotation Xrotation
				JOINT Neck
				{
					OFFSET 0.000000 0.000000 0.000000
					CHANNELS 3 Zrotation Yrotation Xrotation
					JOINT Neck1
					{
						OFFSET 0.000000 1.600000 0.340000
						CHANNELS 3 Zrotation Yrotation Xrotation
						JOINT Head
						{
							OFFSET 0.000000 1.667000 -0.240000
							CHANNELS 3 Zrotation Yrotation Xrotation
							End Site
							{
								OFFSET 0.000000 0.000000 0.000000
							}
						}
					}
				}
				JOINT LeftShoulder
				{
					OFFSET 0.000000 0.000000 0.000000
					CHANNELS 3 Zrotation Yrotation Xrotation
					JOINT LeftArm
					{
						OFFSET 2.700000 1.550000 -0.730000
						CHANNELS 3 Zrotation Yrotation Xrotation
						JOINT LeftForeArm
						{
							OFFSET 5.450000 0.000000 0.000000
							CHANNELS 3 Zrotation Yrotation Xrotation
							JOINT LeftHand
							{
								OFFSET 3.450000 0.000000 0.000000
								CHANNELS 3 Zrotation Yrotation Xrotation
								JOINT LeftHandIndex1
								{
									OFFSET 0.750000 0.000000 0.000000
									CHANNELS 3 Zrotation Yrotation Xrotation
									End Site
									{
										OFFSET 0.000000 0.000000 0.000000
									}
								}
							}
						}
					}
				}
				JOINT RightShoulder
				{
					OFFSET 0.000000 0.000000 0.000000
					CHANNELS 3 Zrotation Yrotation Xrotation
					JOINT RightArm
					{
						OFFSET -2.700000 1.550000 -0.730000
						CHANNELS 3 Zrotation Yrotation Xrotation
						JOINT RightForeArm
						{
							OFFSET -5.450000 0.000000 0.000000
							CHANNELS 3 Zrotation Yrotation Xrotation
							JOINT RightHand
							{
								OFFSET -3.450000 0.000000 0.000000
								CHANNELS 3 Zrotation Yrotation Xrotation
								JOINT RightHandIndex1
								{
									OFFSET -0.750000 0.000000 0.000000
									CHANNELS 3 Zrotation Yrotation Xrotation
									End Site
									{
										OFFSET 0.000000 0.000000 0.000000
									}
								}
							}
						}
					}
				}
			}
		}
	}
}
MOTION
Frames: 7
Frame Time: 0.016667
0.664620 16.519690 -5.032780 -0.839802 -3.401788 4.342526 -15.240010 12.810411 3.029256 9.419313 -0.944762 -6.797974 -7.554930 3.907981 -1.888316 0.139147 3.969629 3.313900 -0.035780 -0.141860 -0.007180 18.234252 -10.462344 2.746379 -12.076667 0.320982 -9.339881 7.562604 -3.682114 1.023941 -0.152662 -3.539722 3.158317 -0.080580 0.227150 0.131870 -3.403304 -1.623925 -7.248383 5.391581 0.075737 0.971372 -0.786946 -0.202460 2.320555 1.520734 -2.242324 -8.104604 -6.065564 4.530529 36.278204 -0.496320 4.122330 1.927510 -32.815828 -9.464911 3.960741 -52.073585 -2.411341 -1.820001 -8.718147 -10.002899 -0.150657 -3.841105 3.036918 0.075830 0.140000 -0.059510 0.065060 30.344562 11.582803 5.444711 54.389152 1.374635 -5.036970 4.114755 12.771038 -0.488537 2.628988 -1.288328 -0.083590 0.028930 0.050600 0.002060 
0.668100 16.515250 -5.029670 -0.903365 -3.402848 4.356124 -15.232593 12.792751 3.031101 9.524483 -0.952060 -6.789951 -7.671869 3.923330 -1.930717 0.125279 3.999975 3.308475 -0.040360 -0.154390 -0.004540 18.246553 -10.477613 2.729781 -11.840018 0.316837 -9.299423 7.140538 -3.626205 1.035996 -0.144206 -3.519374 3.167152 -0.079120 0.236860 0.125910 -3.431102 -1.577540 -7.226585 5.500212 0.096976 0.907155 -0.928076 -0.175081 2.463532 1.516855 -2.194774 -8.040349 -5.895980 4.413049 35.905672 -0.478800 3.999240 1.836220 -32.530657 -9.395226 3.943718 -52.109734 -2.494845 -1.827166 -8.976274 -10.191932 -0.143559 -3.848908 3.029690 0.079350 0.143810 -0.071000 0.061620 30.033322 11.485697 5.357228 54.605811 1.649078 -4.918462 4.429073 12.706543 -0.468759 2.625450 -1.284586 -0.098130 0.039760 0.057900 -0.004260 
0.677560 16.512050 -5.028940 -0.896416 -3.569174 4.358168 -15.228258 12.800772 3.035342 9.462889 -0.945177 -6.695767 -7.549645 3.904352 -1.947199 0.117543 3.995107 3.307279 -0.035880 -0.156050 0.010950 18.246555 -10.513093 2.707821 -11.892254 0.324083 -9.509555 6.875863 -3.635002 1.388904 -0.137940 -3.492277 3.166858 -0.080030 0.224870 0.132820 -3.435271 -1.533906 -7.217539 5.510673 0.127155 0.925004 -1.013493 -0.145101 2.557789 1.622063 -2.059787 -8.078578 -5.601576 4.125889 35.749672 -1.050640 4.096100 1.622010 -32.561781 -9.587799 4.033290 -52.219514 -2.497152 -1.860677 -8.634971 -10.234942 -0.173067 -3.848675 3.032778 0.084040 0.142170 -0.066120 0.054500 29.844781 11.640560 5.362086 54.810660 1.942965 -4.843943 4.323506 12.795038 -0.476763 2.625565 -1.290515 -0.096070 0.030270 0.056500 -0.012520 
0.684430 16.512420 -5.029910 -0.867767 -3.565991 4.347776 -15.221833 12.794661 3.046075 9.361538 -0.962991 -6.710631 -7.515988 3.871345 -2.052418 0.107488 3.994944 3.306105 -0.036050 -0.167400 0.017880 18.248990 -10.533941 2.697101 -12.052360 0.341682 -9.726905 6.847286 -3.661541 1.641546 -0.132098 -3.479885 3.161358 -0.084360 0.222500 0.138220 -3.448596 -1.496132 -7.221637 5.541469 0.173722 0.958466 -0.986089 -0.091669 2.631464 1.569985 -2.101832 -8.161813 -5.702811 3.959979 35.877177 -1.245050 3.943020 1.637140 -32.517990 -9.888549 4.161274 -52.255292 -2.520436 -1.813984 -8.822105 -10.119985 -0.179528 -3.850422 3.036962 0.090470 0.139910 -0.067190 0.049600 29.897162 12.052847 5.363875 55.027533 2.426542 -4.472785 3.492092 11.621529 -0.486940 2.639190 -1.289876 -0.098180 0.026990 0.062570 -0.018380 
0.694940 16.512360 -5.034570 -0.841638 -3.440482 4.322699 -15.206349 12.788283 3.034441 9.245112 -0.952685 -6.837512 -7.589945 3.911160 -1.764871 0.101710 3.978384 3.305890 -0.044150 -0.176720 0.009840 18.257702 -10.561164 2.715704 -12.186948 0.351264 -9.794566 6.889955 -3.667350 1.587787 -0.131605 -3.480838 3.160389 -0.090280 0.221800 0.140310 -3.484401 -1.425871 -7.236408 5.653660 0.266511 1.014836 -1.135938 0.028728 2.747984 1.589942 -2.063824 -8.368471 -5.663392 3.813248 36.315046 -1.115810 3.667210 1.651800 -32.416713 -10.408405 4.396080 -52.465590 -2.514155 -1.833397 -8.747015 -10.130828 -0.193193 -3.852910 3.030648 0.092960 0.137900 -0.065060 0.044690 29.734485 12.657301 5.465179 55.322537 2.938481 -4.018777 3.250855 10.344701 -0.418277 2.653401 -1.278378 -0.096150 0.029130 0.072830 -0.018270 
0.702090 16.512170 -5.035330 -0.805454 -3.171551 4.294726 -15.186879 12.738003 3.013059 9.140976 -0.946361 -6.830847 -7.655270 3.919184 -1.700476 0.092342 3.976176 3.310491 -0.049560 -0.186870 0.007800 18.281719 -10.574143 2.743948 -12.280569 0.342507 -9.578078 6.942831 -3.646225 1.163668 -0.141971 -3.520129 3.148366 -0.093370 0.229280 0.138450 -3.551104 -1.302616 -7.230725 5.807291 0.306376 0.852396 -1.585540 0.096971 2.965932 1.659583 -1.784958 -8.443419 -5.080483 3.587215 36.534437 -0.926760 3.448850 1.726120 -32.156043 -10.756695 4.636942 -52.463772 -2.380194 -1.910703 -8.938371 -10.249760 -0.191654 -3.851986 3.023768 0.099260 0.138590 -0.067770 0.044870 29.277704 12.901613 5.356232 56.392367 3.685792 -3.586955 2.801501 9.324586 -0.384839 2.666593 -1.273647 -0.104380 0.037040 0.077720 -0.019390 
0.713630 16.508450 -5.035990 -0.886365 -3.051524 4.236153 -15.171833 12.696073 3.003724 9.372860 -0.927343 -6.843611 -8.018476 4.003525 -1.517126 0.105995 3.999888 3.295995 -0.054370 -0.188500 0.000430 18.298792 -10.594065 2.760297 -12.109915 0.335222 -9.433736 6.789785 -3.602100 0.892709 -0.145955 -3.529826 3.148904 -0.098190 0.226060 0.140940 -3.597342 -1.187015 -7.233967 5.908286 0.421934 0.709887 -1.735006 0.198322 3.286390 1.716041 -1.397126 -8.663710 -4.363540 3.357137 37.155113 -0.742410 3.311280 2.131360 -31.817215 -11.467911 4.996609 -52.658765 -2.539181 -1.837607 -8.896619 -10.189791 -0.183040 -3.852671 3.029827 0.093060 0.139810 -0.066620 0.042850 28.813815 13.444927 5.384731 57.324405 4.403077 -3.159844 1.859258 8.250055 -0.356854 2.684116 -1.280652 -0.096640 0.028510 0.079330 -0.016390 
